PathFileType	4	(X/Y/Z)	C:\Users\Biomechanik\SynologyDrive\AlexP\Athlete_03\Athlete_3_25_03_31\Walking_05\marker_experimental.trc
DataRate	CameraRate	NumFrames	NumMarkers	Units	OrigDataRate	OrigDataStartFrame	OrigNumFrames
200.000000	200.000000	4	53	mm	200.000000	0	342
Frame#	Time	GLAB			RFHD			LFHD			C7			T6			SPINMOL			SPINM2			SPINM3			T12			BELTOL			BELT2			BELT3			SACROL			SACR2			SACR3			LTHOL			LTH2			LTH3			LSHAOL			LSHA2			LSHA3			LHEE			LTOE			LM5			RTHOL			RTH2			RTH3			RSHAOL			RSHA2			RSHA3			RHEE			RTOE			RM5			STRN			XIPH			LACR			LUAOL			LUA2			LUA3			LLAOL			LLA2			LLA3			LWRR			LWRU			RACR			RUAOL			RUA2			RUA3			RLAOL			RLA2			RLA3			RWRR			RWRU			
		X1	Y1	Z1	X2	Y2	Z2	X3	Y3	Z3	X4	Y4	Z4	X5	Y5	Z5	X6	Y6	Z6	X7	Y7	Z7	X8	Y8	Z8	X9	Y9	Z9	X10	Y10	Z10	X11	Y11	Z11	X12	Y12	Z12	X13	Y13	Z13	X14	Y14	Z14	X15	Y15	Z15	X16	Y16	Z16	X17	Y17	Z17	X18	Y18	Z18	X19	Y19	Z19	X20	Y20	Z20	X21	Y21	Z21	X22	Y22	Z22	X23	Y23	Z23	X24	Y24	Z24	X25	Y25	Z25	X26	Y26	Z26	X27	Y27	Z27	X28	Y28	Z28	X29	Y29	Z29	X30	Y30	Z30	X31	Y31	Z31	X32	Y32	Z32	X33	Y33	Z33	X34	Y34	Z34	X35	Y35	Z35	X36	Y36	Z36	X37	Y37	Z37	X38	Y38	Z38	X39	Y39	Z39	X40	Y40	Z40	X41	Y41	Z41	X42	Y42	Z42	X43	Y43	Z43	X44	Y44	Z44	X45	Y45	Z45	X46	Y46	Z46	X47	Y47	Z47	X48	Y48	Z48	X49	Y49	Z49	X50	Y50	Z50	X51	Y51	Z51	X52	Y52	Z52	X53	Y53	Z53	

1	0	-712.1264038085939	1566.620361328125	251.1461486816405	-766.3843383789065	1589.480224609375	314.3017272949218	-754.0787353515626	1592.43505859375	177.2914428710936	-938.3688964843751	1406.626098632812	226.1493988037108	-996.8923339843751	1238.15478515625	224.1201934814451	-1005.329956054688	1197.433837890625	203.9345397949217	-1009.6025390625	1190.842651367188	253.7149963378904	-1000.315185546875	1133.700317382812	221.0209808349608	-975.2612304687501	1068.505493164062	226.1735076904295	-1012.473999023438	1035.4609375	217.2105560302732	-1007.163696289063	1031.551879882812	267.171905517578	-1015.61083984375	972.5538330078124	237.0191192626951	-1002.381652832031	932.9426269531249	221.6403350830076	-992.133056640625	925.4718627929686	271.3524169921873	-1017.658935546875	871.5863647460936	242.4913940429686	-980.9788818359375	669.6330566406249	47.47480773925763	-1043.563720703125	632.2315673828124	85.06936645507794	-1002.319580078125	614.5855102539061	64.46497344970685	-1099.084594726562	331.5943908691406	71.42533874511699	-1165.245361328125	288.6987609863281	82.53689575195291	-1117.60986328125	273.3103942871093	81.79032135009746	-1250.63427734375	108.7743606567382	176.3004302978513	-1043.210571289062	40.17417907714837	176.0876617431639	-1088.680297851562	30.69447517395013	75.93950653076152	-821.5110473632814	637.7015380859375	410.1522827148436	-747.0615844726564	609.0477905273438	428.5761413574218	-788.6729736328126	590.2144775390625	402.3443603515623	-676.3161010742189	317.6627807617187	410.1519470214843	-611.0071411132814	272.9783935546874	418.4164733886718	-655.2112426757814	260.5884704589843	399.0067443847655	-553.1633300781251	53.71747207641598	311.3843994140624	-371.3372192382813	158.9663696289062	337.6271057128906	-404.3126525878907	106.3739471435547	431.6455993652343	-765.0283813476564	1304.937377929688	232.2152862548827	-749.1038208007814	1162.058715820312	225.8990631103514	-853.4384155273439	1375.800659179688	57.71506881713852	-824.6752929687501	1233.695556640625	-48.33953094482437	-818.6476440429689	1171.693603515625	-69.62240600585953	-776.8262329101564	1188.941284179688	-46.5676765441896	-679.8342285156251	1012.808288574219	-86.82933044433607	-667.2714843750001	937.1913452148438	-68.35520935058607	-634.5446166992189	974.5430908203125	-73.00820922851574	-550.2138061523438	918.158935546875	-50.01539611816416	-540.5987548828126	953.7543334960938	19.4940299987792	-862.2409667968752	1361.874877929688	398.1119079589842	-907.7327880859377	1219.348876953125	493.867462158203	-893.9874267578127	1156.540283203125	509.0415649414061	-944.2213134765627	1167.04345703125	511.2465820312498	-942.174743652344	947.9176025390624	558.5878295898435	-900.0189208984376	896.160400390625	600.0077514648436	-936.0869750976564	886.0471191406249	567.3693237304685	-907.3098754882814	803.5841674804688	593.2913208007811	-853.0782470703126	783.7113647460938	534.9666748046874	
2	0.005	-708.2990722656251	1566.307006835938	251.9634399414061	-762.5022583007815	1589.092407226562	315.1322326660155	-750.2240600585939	1592.139282226562	178.1093749999999	-934.3806152343751	1406.23486328125	226.9430084228514	-992.8940429687501	1237.78125	224.7897796630858	-1001.34228515625	1197.078002929688	204.5667724609373	-1005.596740722656	1190.44580078125	254.347457885742	-996.3338623046876	1133.32958984375	221.5950775146483	-971.2528686523439	1068.11474609375	226.6570892333983	-1008.492736816406	1035.046264648438	217.7795104980467	-1003.154968261719	1031.113891601562	267.7349548339842	-1011.626281738281	972.1329956054686	237.560592651367	-998.3665771484376	932.4974365234374	222.128692626953	-988.0732421875	924.9987792968749	271.8278198242186	-1013.586608886719	871.1160278320311	242.9510192871092	-977.7579345703125	669.6903686523436	47.70104980468732	-1040.167846679688	632.3336181640624	85.35607147216778	-998.9307250976562	614.5776367187499	64.70942687988263	-1096.817016601562	332.1656799316406	71.39675903320293	-1163.231079101562	289.7762145996093	82.4689483642576	-1115.685791015625	274.0584106445312	81.76375579833964	-1249.921630859375	110.5492935180663	176.1587219238279	-1043.039428710938	40.05517578124994	176.0783081054686	-1088.452514648438	30.79808044433587	75.9250488281248	-816.5612182617189	637.6527709960938	410.7242736816405	-742.0856933593751	609.2168579101562	428.7596130371093	-783.6257934570314	590.20947265625	402.8394165039061	-672.4152832031251	317.3264465332031	410.3161315917968	-607.4177856445314	272.2900085449218	418.5997009277343	-651.6651611328126	260.1830749511718	399.1080017089843	-550.7648315429689	52.83546066284176	311.3761596679686	-368.4205322265626	157.1455993652343	337.3648986816406	-401.6056213378907	104.9149398803711	431.4744567871093	-760.9542846679689	1304.573120117188	232.894561767578	-745.0678100585939	1161.7041015625	226.4416656494139	-849.4552001953126	1375.53515625	58.48878860473617	-820.7271118164064	1233.50927734375	-47.61301422119156	-814.8205566406251	1171.513671875	-68.92929840087906	-772.9415283203126	1188.684692382812	-45.9421539306642	-675.9419555664064	1012.653076171875	-86.26703643798841	-663.2789306640626	937.0560913085938	-67.81386566162122	-630.6079101562501	974.4611206054688	-72.44406127929699	-546.2095947265625	918.1965942382812	-49.42052459716807	-536.6929931640626	953.7652587890625	20.12265777587881	-858.1702880859377	1361.383666992188	398.8197326660155	-903.7988281250002	1218.801513671875	494.4675292968748	-890.0347900390627	1155.93115234375	509.4979858398436	-940.3496704101565	1166.479736328125	511.7525939941405	-938.4954223632815	947.3442382812499	558.8890380859373	-896.4571533203126	895.4783935546875	600.3201293945311	-932.5073852539064	885.4629516601561	567.6347656249998	-903.8778686523439	802.9502563476562	593.5482177734374	-849.6095581054689	783.0174560546875	535.2610473632811	
3	0.01	-703.8776855468751	1565.973876953125	252.9026489257811	-758.0322265625002	1588.671997070312	316.0860595703124	-745.7882080078126	1591.817626953125	179.0509033203124	-929.7924804687501	1405.803344726562	227.8659057617186	-988.2872314453126	1237.366088867188	225.5662841796873	-996.7448120117189	1196.68310546875	205.2999725341795	-1000.980346679688	1190.003540039062	255.0802459716795	-991.7412109375001	1132.91748046875	222.2623138427733	-966.6241455078126	1067.679931640625	227.2231445312498	-1003.889526367188	1034.574340820312	218.4326171874998	-998.5237426757814	1030.618041992188	268.3823852539061	-1007.013854980469	971.6541748046874	238.1850585937498	-993.7209472656251	931.9976196289061	222.693161010742	-983.3773803710938	924.4714355468749	272.3781738281248	-1008.871887207031	870.5877075195311	243.4862518310545	-974.0116577148438	669.7597045898436	47.9699172973631	-1036.19873046875	632.4418945312499	85.70245361328107	-994.9769897460938	614.5700683593749	65.00188446044903	-1094.149658203125	332.8373413085937	71.36524963378886	-1160.853637695312	291.0410766601562	82.39409637451151	-1113.410034179688	274.9409484863281	81.73121643066386	-1249.027954101562	112.6389617919921	176.0084991455076	-1042.854614257812	39.91147613525384	176.0737457275389	-1088.179443359375	30.92390823364251	75.90814971923808	-810.8745117187501	637.618408203125	411.3833923339842	-736.3824462890626	609.4287109375	428.962188720703	-777.8661499023439	590.2160034179688	403.4111938476561	-667.9703979492189	316.9572448730468	410.5181274414061	-603.3331909179689	271.5046691894531	418.7940063476561	-647.6420898437501	259.7244873046874	399.2404785156249	-548.1431274414064	51.8509483337402	311.3540954589843	-365.1745300292969	154.9608917236328	337.0716552734374	-398.6289978027344	103.1644058227539	431.2766418457031	-756.2657470703126	1304.1787109375	233.6855163574217	-740.4162597656251	1161.319458007812	227.0784606933592	-844.8662719726564	1375.249145507812	59.38906860351547	-816.1793212890626	1233.315307617188	-46.77222442626968	-810.4123535156251	1171.325561523438	-68.12990570068374	-768.4769897460939	1188.404296875	-45.21253585815444	-671.4936523437501	1012.471435546875	-85.62969970703138	-658.7359008789064	936.894775390625	-67.20066833496107	-626.1228027343751	974.355224609375	-71.80468750000011	-541.6534423828125	918.2134399414062	-48.75271606445322	-532.2404174804689	953.7477416992188	20.83018112182607	-853.4885864257815	1360.838012695312	399.6499633789061	-899.2574462890627	1218.185424804688	495.168243408203	-885.4841918945315	1155.252563476562	510.0491333007811	-935.8735351562502	1165.846801757812	512.347473144531	-934.242370605469	946.6970214843749	559.2410888671873	-892.3387451171876	894.7096557617188	600.6828613281249	-928.3662719726564	884.8027343749999	567.9425048828123	-899.9025878906251	802.2330932617188	593.8400268554686	-845.5996704101564	782.2343139648438	535.5924072265624	
4	0.015	-698.8942871093751	1565.630737304688	253.9562225341795	-753.0071411132815	1588.230346679688	317.1554565429686	-740.8046875000001	1591.478515625	180.1089019775389	-924.6397094726564	1405.340454101562	228.9139556884764	-983.1046142578126	1236.917236328125	226.445831298828	-991.5695800781251	1196.256591796875	206.1304779052733	-995.7859497070314	1189.523681640625	255.9095764160155	-986.5681762695314	1132.471923828125	223.0197906494139	-961.4050292968751	1067.208740234375	227.8704223632811	-998.6917724609376	1034.050659179688	219.1645050048826	-993.2987060546876	1030.07080078125	269.1090698242186	-1001.799377441406	971.1231079101561	238.8881988525389	-988.4720458984376	931.4510498046874	223.3304901123045	-978.073486328125	923.8995971679686	273.0004882812498	-1003.541381835938	870.0098266601561	244.0953216552733	-969.75439453125	669.8411865234374	48.28250885009748	-1031.667114257812	632.5526123046874	86.11148071289044	-990.4713745117188	614.5629272460936	65.34365081787091	-1091.084106445312	333.6087036132812	71.33136749267558	-1158.111938476562	292.4912719726562	82.31438446044901	-1110.780029296875	275.9579772949218	81.69233703613261	-1247.9345703125	115.0412902832031	175.8549346923826	-1042.6611328125	39.74221038818353	176.0760498046873	-1087.85986328125	31.07303619384759	75.88903045654277	-804.4995727539064	637.6049194335938	412.1244201660155	-730.0036010742189	609.6852416992188	429.1795349121093	-771.4499511718751	590.2369384765625	404.0565185546874	-663.0285034179689	316.5632019042968	410.7597045898436	-598.7979736328126	270.6313171386718	418.9931030273436	-643.1892089843751	259.2192687988281	399.4069824218749	-545.3562622070314	50.78371810913082	311.3156433105468	-361.6547851562501	152.4049530029297	336.7522888183593	-395.4431457519532	101.1167221069336	431.0537414550781	-750.9985961914064	1303.764526367188	234.5850372314452	-735.1818847656251	1160.914794921875	227.8084716796874	-839.7047729492189	1374.950805664062	60.41202163696273	-811.0652465820314	1233.120971679688	-45.82212066650406	-805.4553222656251	1171.136840820312	-67.2298736572267	-763.4682617187501	1188.106567382812	-44.38127136230483	-666.5329589843751	1012.264099121094	-84.92487335205091	-653.6921997070314	936.7069091796875	-66.52329254150402	-621.1369628906251	974.2224731445312	-71.09775543212902	-536.595458984375	918.2015991210938	-48.02225494384776	-527.2874145507814	953.6927490234375	21.6063518524169	-848.2318115234377	1360.248291015625	400.6007080078123	-894.1387939453127	1217.50927734375	495.9675292968748	-880.3676757812502	1154.515380859375	510.6961669921873	-930.8203735351565	1165.154541015625	513.0306396484373	-929.4414672851565	945.9846801757811	559.643127441406	-887.6881713867189	893.864501953125	601.0940551757811	-923.6881713867189	884.0753173828125	568.2910766601561	-895.4060668945314	801.4420166015625	594.1638183593749	-841.0729370117189	781.3724975585938	535.9562377929686	
